<svg width="482" height="240" viewBox="0 0 482 240" fill="none" xmlns="http://www.w3.org/2000/svg">
<path d="M108.804 174.979L136.112 196.91L163.757 174.646L179.741 147.21L169.623 117.012L136.112 100.208L102.829 116.851L92.7091 147.21L108.804 174.979Z" fill="#1090FF"/>
<path d="M136.112 17C136.112 17 124.418 25.3208 92.7091 66.7001L102.829 116.851L119.471 66.9255L136.112 17Z" fill="#0033AA"/>
<path d="M179.741 66.7001C148.481 25.3208 136.112 17 136.112 17L152.868 67.0061L169.623 117.012L179.741 66.7001Z" fill="#0033AA"/>
<path d="M102.829 116.851L136.112 100.208L119.471 66.9255L102.829 116.851Z" fill="#0066EE"/>
<path d="M136.112 100.208L169.623 117.012L152.868 67.0061L136.112 100.208Z" fill="#0066EE"/>
<path d="M210.11 137.315C208.086 123.104 201.455 95.4445 179.741 66.7001L169.623 117.012L210.11 137.315Z" fill="#1090FF"/>
<path d="M136.112 222.097L114.411 184.654L82.9499 202.174C94.0771 213.471 110.845 222.022 136.112 222.097Z" fill="#1090FF"/>
<path d="M157.927 184.654L136.112 222.097C161.529 222.174 178.319 213.572 189.411 202.174L157.927 184.654Z" fill="#1090FF"/>
<path d="M82.9499 202.174L114.411 184.654L108.804 174.979L92.7091 147.21L82.9499 202.174Z" fill="#0066EE"/>
<path d="M157.927 184.654L189.411 202.174L179.741 147.21L163.757 174.646L157.927 184.654Z" fill="#0066EE"/>
<path d="M61.9027 137.315C61 143.562 61 147.21 61 147.21C61 147.21 61.0987 179.989 82.9499 202.174L92.7091 147.21L61.9027 137.315Z" fill="#0033AA"/>
<path d="M211 147.21C211 147.21 211 143.562 210.11 137.315L179.741 147.21L189.411 202.174C211 179.989 211 147.21 211 147.21Z" fill="#0033AA"/>
<path d="M102.829 116.851L61.9027 137.315L92.7091 147.21L102.829 116.851Z" fill="#0066EE"/>
<path d="M210.11 137.315L169.623 117.012L179.741 147.21L210.11 137.315Z" fill="#0066EE"/>
<path fill-rule="evenodd" clip-rule="evenodd" d="M157.927 184.654L136.112 222.097V196.91L163.757 174.646L157.927 184.654Z" fill="#0033AA"/>
<path d="M114.411 184.654L136.112 222.097V196.91L108.804 174.979L114.411 184.654Z" fill="#0066EE"/>
<path fill-rule="evenodd" clip-rule="evenodd" d="M136.112 17V100.208L152.868 67.0061L136.112 17Z" fill="#1090FF"/>
<path d="M136.112 17L119.471 66.9255L136.112 100.208V17Z" fill="#50B0FF"/>
<path d="M92.7091 66.7001C70.6822 95.4445 63.9564 123.104 61.9027 137.315L102.829 116.851L92.7091 66.7001Z" fill="#50B0FF"/>
<path d="M253.512 79.858V99H248.344V79.858H241.918V75.268H259.938V79.858H253.512ZM263.201 73.84H268.233V84.176H268.437C268.755 83.2467 269.31 82.442 270.103 81.762C270.897 81.082 271.996 80.742 273.401 80.742C275.237 80.742 276.62 81.354 277.549 82.578C278.501 83.802 278.977 85.5473 278.977 87.814V99H273.945V88.222C273.945 87.066 273.764 86.216 273.401 85.672C273.039 85.1053 272.393 84.822 271.463 84.822C271.055 84.822 270.659 84.8787 270.273 84.992C269.888 85.0827 269.537 85.2413 269.219 85.468C268.925 85.6947 268.687 85.978 268.505 86.318C268.324 86.6353 268.233 87.0093 268.233 87.44V99H263.201V73.84ZM290.901 99.408C289.541 99.408 288.329 99.1927 287.263 98.762C286.198 98.3087 285.291 97.6853 284.543 96.892C283.818 96.076 283.263 95.09 282.877 93.934C282.515 92.778 282.333 91.486 282.333 90.058C282.333 88.6527 282.515 87.3833 282.877 86.25C283.24 85.094 283.773 84.108 284.475 83.292C285.201 82.476 286.085 81.8527 287.127 81.422C288.17 80.9687 289.36 80.742 290.697 80.742C292.171 80.742 293.429 80.9913 294.471 81.49C295.537 81.9887 296.398 82.6573 297.055 83.496C297.735 84.3347 298.223 85.3093 298.517 86.42C298.835 87.508 298.993 88.6527 298.993 89.854V91.35H287.535V91.622C287.535 92.8007 287.853 93.7413 288.487 94.444C289.122 95.124 290.119 95.464 291.479 95.464C292.522 95.464 293.372 95.26 294.029 94.852C294.687 94.4213 295.299 93.9113 295.865 93.322L298.381 96.45C297.588 97.3793 296.545 98.1047 295.253 98.626C293.984 99.1473 292.533 99.408 290.901 99.408ZM290.799 84.448C289.779 84.448 288.975 84.788 288.385 85.468C287.819 86.1253 287.535 87.0093 287.535 88.12V88.392H293.791V88.086C293.791 86.998 293.542 86.1253 293.043 85.468C292.567 84.788 291.819 84.448 290.799 84.448ZM316.906 99.408C314.934 99.408 313.178 99.0907 311.636 98.456C310.118 97.8213 308.928 96.7333 308.066 95.192L311.84 92.234C312.43 93.186 313.11 93.8887 313.88 94.342C314.674 94.7953 315.682 95.022 316.906 95.022C318.334 95.022 319.445 94.7047 320.238 94.07C321.032 93.4353 321.428 92.6193 321.428 91.622C321.428 90.8967 321.168 90.3527 320.646 89.99C320.125 89.6273 319.479 89.3553 318.708 89.174L317.144 88.834C316.283 88.6527 315.501 88.4033 314.798 88.086C314.096 87.746 313.495 87.3267 312.996 86.828C312.498 86.3067 312.112 85.6947 311.84 84.992C311.591 84.2893 311.466 83.462 311.466 82.51C311.466 81.422 311.682 80.4133 312.112 79.484C312.566 78.5547 313.189 77.75 313.982 77.07C314.776 76.39 315.739 75.8573 316.872 75.472C318.006 75.064 319.252 74.86 320.612 74.86C322.38 74.86 323.967 75.1433 325.372 75.71C326.8 76.254 327.922 77.07 328.738 78.158L325.168 81.354C324.624 80.606 323.99 80.0733 323.264 79.756C322.562 79.416 321.61 79.246 320.408 79.246C319.184 79.246 318.21 79.5067 317.484 80.028C316.782 80.5493 316.43 81.2293 316.43 82.068C316.43 82.748 316.646 83.258 317.076 83.598C317.53 83.938 318.164 84.1987 318.98 84.38L320.476 84.72C321.383 84.924 322.21 85.196 322.958 85.536C323.706 85.876 324.341 86.3067 324.862 86.828C325.384 87.3267 325.792 87.9273 326.086 88.63C326.381 89.3327 326.528 90.1487 326.528 91.078C326.528 92.098 326.302 93.1067 325.848 94.104C325.418 95.1013 324.783 95.9967 323.944 96.79C323.128 97.5607 322.12 98.1953 320.918 98.694C319.74 99.17 318.402 99.408 316.906 99.408ZM343.152 99L342.608 93.22H335.026L332.238 99H326.968L339.174 75.268H345.464L348.15 99H343.152ZM341.554 79.722H341.282L336.964 89.106H342.268L341.554 79.722ZM351.285 99L356.045 75.268H364.987C367.367 75.268 369.203 75.8233 370.495 76.934C371.81 78.0447 372.467 79.6087 372.467 81.626C372.467 82.918 372.24 84.108 371.787 85.196C371.334 86.2613 370.699 87.1793 369.883 87.95C369.067 88.698 368.092 89.2873 366.959 89.718C365.826 90.126 364.59 90.33 363.253 90.33H357.949L356.215 99H351.285ZM358.833 85.978H363.899C364.67 85.978 365.327 85.774 365.871 85.366C366.438 84.958 366.812 84.3347 366.993 83.496C367.106 82.9747 367.197 82.5553 367.265 82.238C367.333 81.898 367.367 81.6373 367.367 81.456C367.367 80.9347 367.186 80.504 366.823 80.164C366.483 79.8013 365.939 79.62 365.191 79.62H360.091L358.833 85.978ZM243.618 132V108.268H254.838C255.949 108.268 256.946 108.461 257.83 108.846C258.714 109.209 259.462 109.719 260.074 110.376C260.709 111.033 261.196 111.838 261.536 112.79C261.876 113.719 262.046 114.739 262.046 115.85C262.046 116.983 261.876 118.015 261.536 118.944C261.196 119.873 260.709 120.667 260.074 121.324C259.462 121.981 258.714 122.503 257.83 122.888C256.946 123.251 255.949 123.432 254.838 123.432H248.786V132H243.618ZM248.786 118.944H254.226C254.997 118.944 255.597 118.751 256.028 118.366C256.481 117.958 256.708 117.369 256.708 116.598V115.102C256.708 114.331 256.481 113.753 256.028 113.368C255.597 112.96 254.997 112.756 254.226 112.756H248.786V118.944ZM265.326 132V114.15H270.358V118.026H270.528C270.619 117.527 270.778 117.051 271.004 116.598C271.231 116.122 271.526 115.703 271.888 115.34C272.274 114.977 272.727 114.694 273.248 114.49C273.77 114.263 274.382 114.15 275.084 114.15H275.968V118.842H274.71C273.237 118.842 272.138 119.035 271.412 119.42C270.71 119.805 270.358 120.519 270.358 121.562V132H265.326ZM286.149 132.408C284.834 132.408 283.655 132.193 282.613 131.762C281.593 131.331 280.72 130.708 279.995 129.892C279.292 129.076 278.748 128.09 278.363 126.934C277.977 125.778 277.785 124.486 277.785 123.058C277.785 121.63 277.977 120.338 278.363 119.182C278.748 118.026 279.292 117.051 279.995 116.258C280.72 115.442 281.593 114.819 282.613 114.388C283.655 113.957 284.834 113.742 286.149 113.742C287.463 113.742 288.631 113.957 289.651 114.388C290.693 114.819 291.566 115.442 292.269 116.258C292.994 117.051 293.549 118.026 293.935 119.182C294.32 120.338 294.513 121.63 294.513 123.058C294.513 124.486 294.32 125.778 293.935 126.934C293.549 128.09 292.994 129.076 292.269 129.892C291.566 130.708 290.693 131.331 289.651 131.762C288.631 132.193 287.463 132.408 286.149 132.408ZM286.149 128.43C287.146 128.43 287.917 128.124 288.461 127.512C289.005 126.9 289.277 126.027 289.277 124.894V121.256C289.277 120.123 289.005 119.25 288.461 118.638C287.917 118.026 287.146 117.72 286.149 117.72C285.151 117.72 284.381 118.026 283.837 118.638C283.293 119.25 283.021 120.123 283.021 121.256V124.894C283.021 126.027 283.293 126.9 283.837 127.512C284.381 128.124 285.151 128.43 286.149 128.43ZM314.622 133.292C314.622 134.244 314.452 135.083 314.112 135.808C313.795 136.533 313.262 137.145 312.514 137.644C311.766 138.165 310.769 138.551 309.522 138.8C308.298 139.072 306.779 139.208 304.966 139.208C303.425 139.208 302.11 139.106 301.022 138.902C299.957 138.721 299.084 138.449 298.404 138.086C297.747 137.746 297.259 137.315 296.942 136.794C296.647 136.295 296.5 135.717 296.5 135.06C296.5 134.063 296.795 133.281 297.384 132.714C297.973 132.147 298.789 131.796 299.832 131.66V131.286C298.971 131.127 298.325 130.765 297.894 130.198C297.463 129.609 297.248 128.929 297.248 128.158C297.248 127.682 297.339 127.274 297.52 126.934C297.724 126.571 297.973 126.265 298.268 126.016C298.585 125.744 298.948 125.529 299.356 125.37C299.764 125.211 300.172 125.087 300.58 124.996V124.86C299.492 124.361 298.687 123.681 298.166 122.82C297.645 121.936 297.384 120.916 297.384 119.76C297.384 117.947 298.007 116.496 299.254 115.408C300.523 114.297 302.45 113.742 305.034 113.742C306.213 113.742 307.221 113.855 308.06 114.082V113.402C308.06 112.45 308.287 111.77 308.74 111.362C309.216 110.931 309.885 110.716 310.746 110.716H313.568V114.456H309.624V114.66C310.667 115.159 311.437 115.85 311.936 116.734C312.435 117.595 312.684 118.604 312.684 119.76C312.684 121.551 312.049 122.99 310.78 124.078C309.533 125.143 307.618 125.676 305.034 125.676C303.878 125.676 302.824 125.551 301.872 125.302C301.351 125.642 301.09 126.118 301.09 126.73C301.09 127.161 301.249 127.501 301.566 127.75C301.906 127.977 302.461 128.09 303.232 128.09H308.4C310.576 128.09 312.151 128.543 313.126 129.45C314.123 130.357 314.622 131.637 314.622 133.292ZM309.896 133.972C309.896 133.451 309.692 133.054 309.284 132.782C308.876 132.51 308.162 132.374 307.142 132.374H301.022C300.795 132.601 300.625 132.85 300.512 133.122C300.421 133.417 300.376 133.7 300.376 133.972C300.376 134.629 300.659 135.105 301.226 135.4C301.793 135.717 302.756 135.876 304.116 135.876H306.156C307.516 135.876 308.479 135.717 309.046 135.4C309.613 135.105 309.896 134.629 309.896 133.972ZM305.034 122.378C306.031 122.378 306.768 122.174 307.244 121.766C307.743 121.335 307.992 120.723 307.992 119.93V119.522C307.992 118.729 307.743 118.128 307.244 117.72C306.768 117.289 306.031 117.074 305.034 117.074C304.037 117.074 303.289 117.289 302.79 117.72C302.314 118.128 302.076 118.729 302.076 119.522V119.93C302.076 120.723 302.314 121.335 302.79 121.766C303.289 122.174 304.037 122.378 305.034 122.378ZM316.858 132V114.15H321.89V118.026H322.06C322.15 117.527 322.309 117.051 322.536 116.598C322.762 116.122 323.057 115.703 323.42 115.34C323.805 114.977 324.258 114.694 324.78 114.49C325.301 114.263 325.913 114.15 326.616 114.15H327.5V118.842H326.242C324.768 118.842 323.669 119.035 322.944 119.42C322.241 119.805 321.89 120.519 321.89 121.562V132H316.858ZM343.331 132C342.424 132 341.665 131.717 341.053 131.15C340.464 130.583 340.09 129.824 339.931 128.872H339.727C339.455 130.028 338.854 130.912 337.925 131.524C336.996 132.113 335.851 132.408 334.491 132.408C332.7 132.408 331.329 131.932 330.377 130.98C329.425 130.028 328.949 128.77 328.949 127.206C328.949 125.325 329.629 123.931 330.989 123.024C332.372 122.095 334.242 121.63 336.599 121.63H339.421V120.508C339.421 119.647 339.194 118.967 338.741 118.468C338.288 117.947 337.528 117.686 336.463 117.686C335.466 117.686 334.672 117.901 334.083 118.332C333.494 118.763 333.006 119.25 332.621 119.794L329.629 117.142C330.354 116.077 331.261 115.249 332.349 114.66C333.46 114.048 334.956 113.742 336.837 113.742C339.376 113.742 341.28 114.297 342.549 115.408C343.818 116.519 344.453 118.139 344.453 120.27V128.09H346.119V132H343.331ZM336.361 128.906C337.2 128.906 337.914 128.725 338.503 128.362C339.115 127.999 339.421 127.41 339.421 126.594V124.486H336.973C335.001 124.486 334.015 125.155 334.015 126.492V127.002C334.015 127.659 334.219 128.147 334.627 128.464C335.035 128.759 335.613 128.906 336.361 128.906ZM349.496 132V114.15H354.528V117.176H354.732C355.05 116.224 355.594 115.419 356.364 114.762C357.135 114.082 358.189 113.742 359.526 113.742C360.75 113.742 361.793 114.048 362.654 114.66C363.516 115.272 364.139 116.167 364.524 117.346H364.626C364.785 116.847 365.023 116.383 365.34 115.952C365.68 115.499 366.088 115.113 366.564 114.796C367.04 114.479 367.573 114.229 368.162 114.048C368.752 113.844 369.386 113.742 370.066 113.742C371.789 113.742 373.104 114.354 374.01 115.578C374.94 116.802 375.404 118.547 375.404 120.814V132H370.372V121.222C370.372 118.955 369.556 117.822 367.924 117.822C367.176 117.822 366.496 118.037 365.884 118.468C365.272 118.899 364.966 119.556 364.966 120.44V132H359.934V121.222C359.934 118.955 359.118 117.822 357.486 117.822C357.124 117.822 356.761 117.879 356.398 117.992C356.058 118.083 355.741 118.241 355.446 118.468C355.174 118.695 354.948 118.978 354.766 119.318C354.608 119.635 354.528 120.009 354.528 120.44V132H349.496ZM379.877 132V114.15H384.909V117.176H385.113C385.431 116.224 385.975 115.419 386.745 114.762C387.516 114.082 388.57 113.742 389.907 113.742C391.131 113.742 392.174 114.048 393.035 114.66C393.897 115.272 394.52 116.167 394.905 117.346H395.007C395.166 116.847 395.404 116.383 395.721 115.952C396.061 115.499 396.469 115.113 396.945 114.796C397.421 114.479 397.954 114.229 398.543 114.048C399.133 113.844 399.767 113.742 400.447 113.742C402.17 113.742 403.485 114.354 404.391 115.578C405.321 116.802 405.785 118.547 405.785 120.814V132H400.753V121.222C400.753 118.955 399.937 117.822 398.305 117.822C397.557 117.822 396.877 118.037 396.265 118.468C395.653 118.899 395.347 119.556 395.347 120.44V132H390.315V121.222C390.315 118.955 389.499 117.822 387.867 117.822C387.505 117.822 387.142 117.879 386.779 117.992C386.439 118.083 386.122 118.241 385.827 118.468C385.555 118.695 385.329 118.978 385.147 119.318C384.989 119.635 384.909 120.009 384.909 120.44V132H379.877ZM412.774 112.246C411.754 112.246 411.006 112.019 410.53 111.566C410.077 111.09 409.85 110.489 409.85 109.764V109.016C409.85 108.291 410.077 107.701 410.53 107.248C411.006 106.772 411.754 106.534 412.774 106.534C413.794 106.534 414.531 106.772 414.984 107.248C415.46 107.701 415.698 108.291 415.698 109.016V109.764C415.698 110.489 415.46 111.09 414.984 111.566C414.531 112.019 413.794 112.246 412.774 112.246ZM410.258 114.15H415.29V132H410.258V114.15ZM419.987 132V114.15H425.019V117.176H425.223C425.54 116.247 426.095 115.442 426.889 114.762C427.682 114.082 428.781 113.742 430.187 113.742C432.023 113.742 433.405 114.354 434.335 115.578C435.287 116.802 435.763 118.547 435.763 120.814V132H430.731V121.222C430.731 120.066 430.549 119.216 430.187 118.672C429.824 118.105 429.178 117.822 428.249 117.822C427.841 117.822 427.444 117.879 427.059 117.992C426.673 118.083 426.322 118.241 426.005 118.468C425.71 118.695 425.472 118.978 425.291 119.318C425.109 119.635 425.019 120.009 425.019 120.44V132H419.987ZM456.765 133.292C456.765 134.244 456.595 135.083 456.255 135.808C455.937 136.533 455.405 137.145 454.657 137.644C453.909 138.165 452.911 138.551 451.665 138.8C450.441 139.072 448.922 139.208 447.109 139.208C445.567 139.208 444.253 139.106 443.165 138.902C442.099 138.721 441.227 138.449 440.547 138.086C439.889 137.746 439.402 137.315 439.085 136.794C438.79 136.295 438.643 135.717 438.643 135.06C438.643 134.063 438.937 133.281 439.527 132.714C440.116 132.147 440.932 131.796 441.975 131.66V131.286C441.113 131.127 440.467 130.765 440.037 130.198C439.606 129.609 439.391 128.929 439.391 128.158C439.391 127.682 439.481 127.274 439.663 126.934C439.867 126.571 440.116 126.265 440.411 126.016C440.728 125.744 441.091 125.529 441.499 125.37C441.907 125.211 442.315 125.087 442.723 124.996V124.86C441.635 124.361 440.83 123.681 440.309 122.82C439.787 121.936 439.527 120.916 439.527 119.76C439.527 117.947 440.15 116.496 441.397 115.408C442.666 114.297 444.593 113.742 447.177 113.742C448.355 113.742 449.364 113.855 450.203 114.082V113.402C450.203 112.45 450.429 111.77 450.883 111.362C451.359 110.931 452.027 110.716 452.889 110.716H455.711V114.456H451.767V114.66C452.809 115.159 453.58 115.85 454.079 116.734C454.577 117.595 454.827 118.604 454.827 119.76C454.827 121.551 454.192 122.99 452.923 124.078C451.676 125.143 449.761 125.676 447.177 125.676C446.021 125.676 444.967 125.551 444.015 125.302C443.493 125.642 443.233 126.118 443.233 126.73C443.233 127.161 443.391 127.501 443.709 127.75C444.049 127.977 444.604 128.09 445.375 128.09H450.543C452.719 128.09 454.294 128.543 455.269 129.45C456.266 130.357 456.765 131.637 456.765 133.292ZM452.039 133.972C452.039 133.451 451.835 133.054 451.427 132.782C451.019 132.51 450.305 132.374 449.285 132.374H443.165C442.938 132.601 442.768 132.85 442.655 133.122C442.564 133.417 442.519 133.7 442.519 133.972C442.519 134.629 442.802 135.105 443.369 135.4C443.935 135.717 444.899 135.876 446.259 135.876H448.299C449.659 135.876 450.622 135.717 451.189 135.4C451.755 135.105 452.039 134.629 452.039 133.972ZM447.177 122.378C448.174 122.378 448.911 122.174 449.387 121.766C449.885 121.335 450.135 120.723 450.135 119.93V119.522C450.135 118.729 449.885 118.128 449.387 117.72C448.911 117.289 448.174 117.074 447.177 117.074C446.179 117.074 445.431 117.289 444.933 117.72C444.457 118.128 444.219 118.729 444.219 119.522V119.93C444.219 120.723 444.457 121.335 444.933 121.766C445.431 122.174 446.179 122.378 447.177 122.378ZM243.618 165V141.268H248.786V160.41H257.83V165H243.618ZM274.7 165C273.793 165 273.034 164.717 272.422 164.15C271.833 163.583 271.459 162.824 271.3 161.872H271.096C270.824 163.028 270.223 163.912 269.294 164.524C268.365 165.113 267.22 165.408 265.86 165.408C264.069 165.408 262.698 164.932 261.746 163.98C260.794 163.028 260.318 161.77 260.318 160.206C260.318 158.325 260.998 156.931 262.358 156.024C263.741 155.095 265.611 154.63 267.968 154.63H270.79V153.508C270.79 152.647 270.563 151.967 270.11 151.468C269.657 150.947 268.897 150.686 267.832 150.686C266.835 150.686 266.041 150.901 265.452 151.332C264.863 151.763 264.375 152.25 263.99 152.794L260.998 150.142C261.723 149.077 262.63 148.249 263.718 147.66C264.829 147.048 266.325 146.742 268.206 146.742C270.745 146.742 272.649 147.297 273.918 148.408C275.187 149.519 275.822 151.139 275.822 153.27V161.09H277.488V165H274.7ZM267.73 161.906C268.569 161.906 269.283 161.725 269.872 161.362C270.484 160.999 270.79 160.41 270.79 159.594V157.486H268.342C266.37 157.486 265.384 158.155 265.384 159.492V160.002C265.384 160.659 265.588 161.147 265.996 161.464C266.404 161.759 266.982 161.906 267.73 161.906ZM280.866 165V147.15H285.898V150.176H286.102C286.419 149.247 286.974 148.442 287.768 147.762C288.561 147.082 289.66 146.742 291.066 146.742C292.902 146.742 294.284 147.354 295.214 148.578C296.166 149.802 296.642 151.547 296.642 153.814V165H291.61V154.222C291.61 153.066 291.428 152.216 291.066 151.672C290.703 151.105 290.057 150.822 289.128 150.822C288.72 150.822 288.323 150.879 287.938 150.992C287.552 151.083 287.201 151.241 286.884 151.468C286.589 151.695 286.351 151.978 286.17 152.318C285.988 152.635 285.898 153.009 285.898 153.44V165H280.866ZM317.643 166.292C317.643 167.244 317.473 168.083 317.133 168.808C316.816 169.533 316.283 170.145 315.535 170.644C314.787 171.165 313.79 171.551 312.543 171.8C311.319 172.072 309.801 172.208 307.987 172.208C306.446 172.208 305.131 172.106 304.043 171.902C302.978 171.721 302.105 171.449 301.425 171.086C300.768 170.746 300.281 170.315 299.963 169.794C299.669 169.295 299.521 168.717 299.521 168.06C299.521 167.063 299.816 166.281 300.405 165.714C300.995 165.147 301.811 164.796 302.853 164.66V164.286C301.992 164.127 301.346 163.765 300.915 163.198C300.485 162.609 300.269 161.929 300.269 161.158C300.269 160.682 300.36 160.274 300.541 159.934C300.745 159.571 300.995 159.265 301.289 159.016C301.607 158.744 301.969 158.529 302.377 158.37C302.785 158.211 303.193 158.087 303.601 157.996V157.86C302.513 157.361 301.709 156.681 301.187 155.82C300.666 154.936 300.405 153.916 300.405 152.76C300.405 150.947 301.029 149.496 302.275 148.408C303.545 147.297 305.471 146.742 308.055 146.742C309.234 146.742 310.243 146.855 311.081 147.082V146.402C311.081 145.45 311.308 144.77 311.761 144.362C312.237 143.931 312.906 143.716 313.767 143.716H316.589V147.456H312.645V147.66C313.688 148.159 314.459 148.85 314.957 149.734C315.456 150.595 315.705 151.604 315.705 152.76C315.705 154.551 315.071 155.99 313.801 157.078C312.555 158.143 310.639 158.676 308.055 158.676C306.899 158.676 305.845 158.551 304.893 158.302C304.372 158.642 304.111 159.118 304.111 159.73C304.111 160.161 304.27 160.501 304.587 160.75C304.927 160.977 305.483 161.09 306.253 161.09H311.421C313.597 161.09 315.173 161.543 316.147 162.45C317.145 163.357 317.643 164.637 317.643 166.292ZM312.917 166.972C312.917 166.451 312.713 166.054 312.305 165.782C311.897 165.51 311.183 165.374 310.163 165.374H304.043C303.817 165.601 303.647 165.85 303.533 166.122C303.443 166.417 303.397 166.7 303.397 166.972C303.397 167.629 303.681 168.105 304.247 168.4C304.814 168.717 305.777 168.876 307.137 168.876H309.177C310.537 168.876 311.501 168.717 312.067 168.4C312.634 168.105 312.917 167.629 312.917 166.972ZM308.055 155.378C309.053 155.378 309.789 155.174 310.265 154.766C310.764 154.335 311.013 153.723 311.013 152.93V152.522C311.013 151.729 310.764 151.128 310.265 150.72C309.789 150.289 309.053 150.074 308.055 150.074C307.058 150.074 306.31 150.289 305.811 150.72C305.335 151.128 305.097 151.729 305.097 152.522V152.93C305.097 153.723 305.335 154.335 305.811 154.766C306.31 155.174 307.058 155.378 308.055 155.378ZM330.286 162.008H330.116C329.958 162.461 329.742 162.892 329.47 163.3C329.221 163.708 328.892 164.071 328.484 164.388C328.076 164.705 327.589 164.955 327.022 165.136C326.478 165.317 325.844 165.408 325.118 165.408C323.282 165.408 321.888 164.807 320.936 163.606C320.007 162.382 319.542 160.637 319.542 158.37V147.15H324.574V157.928C324.574 159.016 324.767 159.855 325.152 160.444C325.538 161.033 326.195 161.328 327.124 161.328C327.51 161.328 327.895 161.271 328.28 161.158C328.666 161.045 329.006 160.886 329.3 160.682C329.595 160.455 329.833 160.183 330.014 159.866C330.196 159.549 330.286 159.175 330.286 158.744V147.15H335.318V165H330.286V162.008ZM353.192 165C352.286 165 351.526 164.717 350.914 164.15C350.325 163.583 349.951 162.824 349.792 161.872H349.588C349.316 163.028 348.716 163.912 347.786 164.524C346.857 165.113 345.712 165.408 344.352 165.408C342.562 165.408 341.19 164.932 340.238 163.98C339.286 163.028 338.81 161.77 338.81 160.206C338.81 158.325 339.49 156.931 340.85 156.024C342.233 155.095 344.103 154.63 346.46 154.63H349.282V153.508C349.282 152.647 349.056 151.967 348.602 151.468C348.149 150.947 347.39 150.686 346.324 150.686C345.327 150.686 344.534 150.901 343.944 151.332C343.355 151.763 342.868 152.25 342.482 152.794L339.49 150.142C340.216 149.077 341.122 148.249 342.21 147.66C343.321 147.048 344.817 146.742 346.698 146.742C349.237 146.742 351.141 147.297 352.41 148.408C353.68 149.519 354.314 151.139 354.314 153.27V161.09H355.98V165H353.192ZM346.222 161.906C347.061 161.906 347.775 161.725 348.364 161.362C348.976 160.999 349.282 160.41 349.282 159.594V157.486H346.834C344.862 157.486 343.876 158.155 343.876 159.492V160.002C343.876 160.659 344.08 161.147 344.488 161.464C344.896 161.759 345.474 161.906 346.222 161.906ZM375.882 166.292C375.882 167.244 375.712 168.083 375.372 168.808C375.054 169.533 374.522 170.145 373.774 170.644C373.026 171.165 372.028 171.551 370.782 171.8C369.558 172.072 368.039 172.208 366.226 172.208C364.684 172.208 363.37 172.106 362.282 171.902C361.216 171.721 360.344 171.449 359.664 171.086C359.006 170.746 358.519 170.315 358.202 169.794C357.907 169.295 357.76 168.717 357.76 168.06C357.76 167.063 358.054 166.281 358.644 165.714C359.233 165.147 360.049 164.796 361.092 164.66V164.286C360.23 164.127 359.584 163.765 359.154 163.198C358.723 162.609 358.508 161.929 358.508 161.158C358.508 160.682 358.598 160.274 358.78 159.934C358.984 159.571 359.233 159.265 359.528 159.016C359.845 158.744 360.208 158.529 360.616 158.37C361.024 158.211 361.432 158.087 361.84 157.996V157.86C360.752 157.361 359.947 156.681 359.426 155.82C358.904 154.936 358.644 153.916 358.644 152.76C358.644 150.947 359.267 149.496 360.514 148.408C361.783 147.297 363.71 146.742 366.294 146.742C367.472 146.742 368.481 146.855 369.32 147.082V146.402C369.32 145.45 369.546 144.77 370 144.362C370.476 143.931 371.144 143.716 372.006 143.716H374.828V147.456H370.884V147.66C371.926 148.159 372.697 148.85 373.196 149.734C373.694 150.595 373.944 151.604 373.944 152.76C373.944 154.551 373.309 155.99 372.04 157.078C370.793 158.143 368.878 158.676 366.294 158.676C365.138 158.676 364.084 158.551 363.132 158.302C362.61 158.642 362.35 159.118 362.35 159.73C362.35 160.161 362.508 160.501 362.826 160.75C363.166 160.977 363.721 161.09 364.492 161.09H369.66C371.836 161.09 373.411 161.543 374.386 162.45C375.383 163.357 375.882 164.637 375.882 166.292ZM371.156 166.972C371.156 166.451 370.952 166.054 370.544 165.782C370.136 165.51 369.422 165.374 368.402 165.374H362.282C362.055 165.601 361.885 165.85 361.772 166.122C361.681 166.417 361.636 166.7 361.636 166.972C361.636 167.629 361.919 168.105 362.486 168.4C363.052 168.717 364.016 168.876 365.376 168.876H367.416C368.776 168.876 369.739 168.717 370.306 168.4C370.872 168.105 371.156 167.629 371.156 166.972ZM366.294 155.378C367.291 155.378 368.028 155.174 368.504 154.766C369.002 154.335 369.252 153.723 369.252 152.93V152.522C369.252 151.729 369.002 151.128 368.504 150.72C368.028 150.289 367.291 150.074 366.294 150.074C365.296 150.074 364.548 150.289 364.05 150.72C363.574 151.128 363.336 151.729 363.336 152.522V152.93C363.336 153.723 363.574 154.335 364.05 154.766C364.548 155.174 365.296 155.378 366.294 155.378ZM385.364 165.408C384.004 165.408 382.792 165.193 381.726 164.762C380.661 164.309 379.754 163.685 379.006 162.892C378.281 162.076 377.726 161.09 377.34 159.934C376.978 158.778 376.796 157.486 376.796 156.058C376.796 154.653 376.978 153.383 377.34 152.25C377.703 151.094 378.236 150.108 378.938 149.292C379.664 148.476 380.548 147.853 381.59 147.422C382.633 146.969 383.823 146.742 385.16 146.742C386.634 146.742 387.892 146.991 388.934 147.49C390 147.989 390.861 148.657 391.518 149.496C392.198 150.335 392.686 151.309 392.98 152.42C393.298 153.508 393.456 154.653 393.456 155.854V157.35H381.998V157.622C381.998 158.801 382.316 159.741 382.95 160.444C383.585 161.124 384.582 161.464 385.942 161.464C386.985 161.464 387.835 161.26 388.492 160.852C389.15 160.421 389.762 159.911 390.328 159.322L392.844 162.45C392.051 163.379 391.008 164.105 389.716 164.626C388.447 165.147 386.996 165.408 385.364 165.408ZM385.262 150.448C384.242 150.448 383.438 150.788 382.848 151.468C382.282 152.125 381.998 153.009 381.998 154.12V154.392H388.254V154.086C388.254 152.998 388.005 152.125 387.506 151.468C387.03 150.788 386.282 150.448 385.262 150.448Z" fill="black"/>
<path d="M246.06 198.24C244.927 198.24 243.92 198.053 243.04 197.68C242.173 197.293 241.493 196.647 241 195.74L242.92 194.26C243.28 194.86 243.713 195.3 244.22 195.58C244.727 195.847 245.34 195.98 246.06 195.98C247.02 195.98 247.747 195.767 248.24 195.34C248.747 194.9 249 194.353 249 193.7C249 193.233 248.84 192.867 248.52 192.6C248.213 192.333 247.793 192.147 247.26 192.04L246.2 191.82C245.2 191.607 244.407 191.213 243.82 190.64C243.247 190.067 242.96 189.247 242.96 188.18C242.96 187.567 243.08 186.993 243.32 186.46C243.573 185.927 243.92 185.467 244.36 185.08C244.813 184.68 245.36 184.367 246 184.14C246.64 183.913 247.36 183.8 248.16 183.8C249.213 183.8 250.14 183.973 250.94 184.32C251.753 184.667 252.393 185.16 252.86 185.8L251.04 187.42C250.693 186.953 250.293 186.613 249.84 186.4C249.387 186.173 248.793 186.06 248.06 186.06C247.26 186.06 246.633 186.233 246.18 186.58C245.727 186.913 245.5 187.373 245.5 187.96C245.5 188.427 245.64 188.787 245.92 189.04C246.2 189.28 246.62 189.46 247.18 189.58L248.18 189.78C249.233 190.007 250.067 190.413 250.68 191C251.293 191.587 251.6 192.407 251.6 193.46C251.6 194.06 251.473 194.647 251.22 195.22C250.98 195.793 250.62 196.307 250.14 196.76C249.673 197.2 249.093 197.56 248.4 197.84C247.72 198.107 246.94 198.24 246.06 198.24ZM252.66 198L253.08 195.92H254.84L256.8 186.12H255.04L255.46 184.04H261.5L261.08 186.12H259.32L257.36 195.92H259.12L258.7 198H252.66ZM273.645 188.04H273.525L271.705 190.62L268.245 195.4L266.605 190.42L265.845 188.02H265.745L263.745 198H261.325L264.125 184.04H266.885L269.005 190.96H269.085L273.925 184.04H276.865L274.065 198H271.645L273.645 188.04ZM277.243 198L280.043 184.04H285.223C286.57 184.04 287.59 184.367 288.283 185.02C288.99 185.66 289.343 186.54 289.343 187.66C289.343 188.393 289.216 189.067 288.963 189.68C288.71 190.293 288.35 190.82 287.883 191.26C287.43 191.7 286.883 192.047 286.243 192.3C285.616 192.54 284.916 192.66 284.143 192.66H280.843L279.763 198H277.243ZM281.283 190.42H284.483C284.99 190.42 285.423 190.287 285.783 190.02C286.156 189.753 286.396 189.347 286.503 188.8C286.57 188.453 286.623 188.18 286.663 187.98C286.716 187.78 286.743 187.62 286.743 187.5C286.743 187.153 286.623 186.867 286.383 186.64C286.156 186.4 285.783 186.28 285.263 186.28H282.123L281.283 190.42ZM289.704 198L292.504 184.04H295.024L292.684 195.76H297.984L297.544 198H289.704ZM299.782 198L302.582 184.04H311.342L310.882 186.28H304.662L303.942 189.86H309.462L309.022 192.1H303.482L302.762 195.76H309.222L308.782 198H299.782ZM324.133 196.7C323.626 197.14 323.033 197.507 322.353 197.8C321.686 198.093 320.913 198.24 320.033 198.24C319.38 198.24 318.806 198.16 318.313 198C317.833 197.827 317.426 197.593 317.093 197.3C316.773 196.993 316.526 196.64 316.353 196.24C316.193 195.827 316.113 195.373 316.113 194.88C316.113 194.307 316.206 193.8 316.393 193.36C316.58 192.907 316.833 192.507 317.153 192.16C317.473 191.813 317.846 191.5 318.273 191.22C318.713 190.94 319.18 190.673 319.673 190.42C319.42 190.047 319.186 189.633 318.973 189.18C318.76 188.727 318.653 188.233 318.653 187.7C318.653 187.14 318.76 186.627 318.973 186.16C319.186 185.68 319.48 185.267 319.853 184.92C320.24 184.56 320.7 184.287 321.233 184.1C321.78 183.9 322.373 183.8 323.013 183.8C323.493 183.8 323.94 183.86 324.353 183.98C324.78 184.1 325.146 184.28 325.453 184.52C325.76 184.76 326 185.06 326.173 185.42C326.346 185.78 326.433 186.2 326.433 186.68C326.433 187.173 326.333 187.62 326.133 188.02C325.933 188.42 325.66 188.787 325.313 189.12C324.98 189.453 324.593 189.753 324.153 190.02C323.713 190.287 323.26 190.54 322.793 190.78L324.653 193.38C324.893 192.94 325.1 192.467 325.273 191.96C325.446 191.453 325.586 190.933 325.693 190.4H328.933L328.513 192.5H326.993C326.7 193.42 326.313 194.267 325.833 195.04L327.953 198H325.073L324.133 196.7ZM322.693 185.72C322.293 185.72 321.953 185.84 321.673 186.08C321.393 186.32 321.206 186.633 321.113 187.02C321.073 187.18 321.053 187.373 321.053 187.6C321.053 187.867 321.106 188.133 321.213 188.4C321.333 188.653 321.526 188.973 321.793 189.36C322.473 189.013 323.006 188.667 323.393 188.32C323.793 187.96 323.993 187.5 323.993 186.94C323.993 186.553 323.873 186.253 323.633 186.04C323.393 185.827 323.08 185.72 322.693 185.72ZM320.633 196.16C321.126 196.16 321.573 196.08 321.973 195.92C322.386 195.76 322.766 195.54 323.113 195.26L320.653 191.8C320.146 192.067 319.713 192.36 319.353 192.68C319.006 192.987 318.78 193.4 318.673 193.92C318.633 194.08 318.613 194.267 318.613 194.48C318.613 195.027 318.78 195.447 319.113 195.74C319.46 196.02 319.966 196.16 320.633 196.16ZM334.606 198L337.406 184.04H342.586C343.933 184.04 344.953 184.367 345.646 185.02C346.353 185.66 346.706 186.54 346.706 187.66C346.706 188.393 346.58 189.067 346.326 189.68C346.073 190.293 345.713 190.82 345.246 191.26C344.793 191.7 344.246 192.047 343.606 192.3C342.98 192.54 342.28 192.66 341.506 192.66H338.206L337.126 198H334.606ZM338.646 190.42H341.846C342.353 190.42 342.786 190.287 343.146 190.02C343.52 189.753 343.76 189.347 343.866 188.8C343.933 188.453 343.986 188.18 344.026 187.98C344.08 187.78 344.106 187.62 344.106 187.5C344.106 187.153 343.986 186.867 343.746 186.64C343.52 186.4 343.146 186.28 342.626 186.28H339.486L338.646 190.42ZM352.725 198.24C352.045 198.24 351.405 198.133 350.805 197.92C350.205 197.693 349.672 197.353 349.205 196.9C348.752 196.433 348.392 195.847 348.125 195.14C347.859 194.433 347.725 193.6 347.725 192.64C347.725 191.453 347.899 190.327 348.245 189.26C348.592 188.18 349.079 187.24 349.705 186.44C350.345 185.627 351.105 184.987 351.985 184.52C352.865 184.04 353.839 183.8 354.905 183.8C355.585 183.8 356.225 183.913 356.825 184.14C357.425 184.367 357.952 184.713 358.405 185.18C358.859 185.633 359.219 186.213 359.485 186.92C359.752 187.613 359.885 188.44 359.885 189.4C359.885 190.587 359.712 191.72 359.365 192.8C359.019 193.867 358.532 194.807 357.905 195.62C357.279 196.42 356.525 197.06 355.645 197.54C354.765 198.007 353.792 198.24 352.725 198.24ZM352.905 195.98C353.919 195.98 354.759 195.647 355.425 194.98C356.092 194.3 356.545 193.347 356.785 192.12L357.205 190.04C357.259 189.813 357.292 189.607 357.305 189.42C357.319 189.22 357.325 189.04 357.325 188.88C357.325 187.973 357.099 187.28 356.645 186.8C356.205 186.307 355.559 186.06 354.705 186.06C353.692 186.06 352.852 186.4 352.185 187.08C351.519 187.747 351.065 188.693 350.825 189.92L350.405 192C350.352 192.227 350.319 192.44 350.305 192.64C350.292 192.827 350.285 193 350.285 193.16C350.285 194.067 350.505 194.767 350.945 195.26C351.399 195.74 352.052 195.98 352.905 195.98ZM362.624 198L362.244 184.04H364.744V190.06L364.624 195.38H364.784L366.964 189.88L369.484 184.04H372.284L372.484 189.76L372.464 195.5H372.624L374.484 190.52L377.024 184.04H379.584L373.624 198H370.704L370.484 191.72L370.424 186.86H370.284L368.384 191.46L365.584 198H362.624ZM378.903 198L381.703 184.04H390.463L390.003 186.28H383.783L383.063 189.86H388.583L388.143 192.1H382.603L381.883 195.76H388.343L387.903 198H378.903ZM392.908 198H390.388L393.188 184.04H398.488C399.794 184.04 400.788 184.36 401.468 185C402.148 185.627 402.488 186.48 402.488 187.56C402.488 188.093 402.408 188.607 402.248 189.1C402.101 189.593 401.874 190.053 401.568 190.48C401.274 190.893 400.914 191.26 400.488 191.58C400.061 191.887 399.568 192.12 399.008 192.28L400.788 198H398.088L396.548 192.58H393.988L392.908 198ZM397.628 190.42C398.134 190.42 398.568 190.287 398.928 190.02C399.288 189.753 399.528 189.34 399.648 188.78C399.714 188.447 399.768 188.18 399.808 187.98C399.861 187.78 399.888 187.62 399.888 187.5C399.888 187.153 399.768 186.867 399.528 186.64C399.301 186.4 398.928 186.28 398.408 186.28H395.248L394.428 190.42H397.628ZM403.317 198L406.117 184.04H414.637L414.177 186.28H408.197L407.477 189.86H412.817L412.357 192.1H407.017L405.837 198H403.317ZM419.613 184.04L417.913 192.5C417.859 192.74 417.819 192.967 417.793 193.18C417.766 193.393 417.753 193.6 417.753 193.8C417.753 194.52 417.939 195.067 418.313 195.44C418.699 195.8 419.246 195.98 419.953 195.98C420.873 195.98 421.579 195.707 422.073 195.16C422.579 194.613 422.953 193.74 423.193 192.54L424.893 184.04H427.413L425.713 192.5C425.513 193.513 425.253 194.38 424.933 195.1C424.613 195.82 424.213 196.413 423.733 196.88C423.266 197.347 422.706 197.693 422.053 197.92C421.413 198.133 420.666 198.24 419.813 198.24C418.359 198.24 417.246 197.873 416.473 197.14C415.699 196.393 415.313 195.3 415.313 193.86C415.313 193.593 415.326 193.307 415.353 193C415.379 192.693 415.433 192.36 415.513 192L417.093 184.04H419.613ZM427.77 198L430.57 184.04H433.09L430.75 195.76H436.05L435.61 198H427.77Z" fill="#222222"/>
</svg>
